<?xml version="1.0" standalone="no"?>
<!DOCTYPE svg PUBLIC "-//W3C//DTD SVG 20010904//EN"
 "http://www.w3.org/TR/2001/REC-SVG-20010904/DTD/svg10.dtd">
<svg version="1.0" xmlns="http://www.w3.org/2000/svg"
 width="1024.000000pt" height="1024.000000pt" viewBox="0 0 1024.000000 1024.000000"
 preserveAspectRatio="xMidYMid meet">

<g transform="translate(0.000000,1024.000000) scale(0.100000,-0.100000)"
fill="#000000" stroke="none">
<path d="M4995 7480 c-453 -42 -846 -190 -1203 -454 -115 -85 -324 -284 -413
-393 -466 -568 -641 -1323 -477 -2050 12 -51 24 -93 28 -93 4 0 25 7 46 17 22
9 68 24 104 33 77 21 75 13 39 195 -21 108 -23 147 -23 385 -1 214 3 283 17
360 94 497 280 848 628 1186 317 308 739 509 1179 564 125 15 392 12 521 -6
579 -80 1106 -408 1441 -894 175 -256 295 -578 344 -925 13 -96 15 -166 11
-345 -5 -197 -9 -242 -35 -362 -32 -152 -35 -139 38 -153 19 -4 63 -18 98 -32
35 -14 65 -23 68 -21 2 3 17 70 33 149 42 209 55 361 48 557 -21 576 -227
1092 -607 1519 -355 401 -864 672 -1401 748 -134 18 -369 26 -484 15z"/>
<path d="M5130 6902 c-8 -3 -23 -11 -32 -20 -16 -13 -18 -37 -18 -206 0 -105
3 -215 6 -243 l7 -53 57 0 c41 0 59 4 63 14 3 8 9 115 13 239 7 223 7 224 -15
244 -24 22 -57 32 -81 25z"/>
<path d="M4689 6819 c-32 -12 -53 -50 -46 -81 4 -18 68 -199 141 -404 5 -14
116 16 116 31 0 6 -25 102 -55 215 -45 170 -59 209 -80 228 -28 24 -37 25 -76
11z"/>
<path d="M5553 6815 c-24 -10 -34 -24 -46 -62 -24 -72 -109 -395 -105 -397 7
-5 112 -35 114 -33 10 12 154 414 154 431 0 25 -34 61 -66 68 -12 3 -35 0 -51
-7z"/>
<path d="M4275 6625 c-46 -45 -37 -67 106 -262 72 -98 135 -182 139 -186 4 -5
30 8 58 28 l51 36 -36 57 c-144 225 -223 340 -237 345 -32 13 -57 7 -81 -18z"/>
<path d="M5942 6630 c-11 -11 -58 -75 -104 -142 -45 -68 -99 -148 -120 -179
-21 -31 -38 -60 -38 -65 0 -5 22 -23 49 -41 l48 -31 119 151 c65 84 121 154
124 157 15 12 50 79 50 94 0 26 -55 76 -82 76 -13 0 -34 -9 -46 -20z"/>
<path d="M3970 6310 c-22 -22 -35 -63 -26 -85 6 -16 47 -46 260 -191 153 -105
138 -103 187 -26 l21 32 -24 20 c-38 33 -281 224 -315 248 -39 27 -77 28 -103
2z"/>
<path d="M6270 6323 c-19 -8 -258 -182 -323 -236 l-47 -39 27 -49 c16 -27 32
-49 37 -49 14 0 379 240 399 262 23 27 22 59 -4 92 -20 25 -53 32 -89 19z"/>
<path d="M4985 6236 c-299 -68 -539 -286 -629 -571 -64 -203 -59 -382 15 -585
28 -75 84 -179 118 -220 l28 -34 219 194 c120 107 262 233 315 282 l97 88 143
-120 c97 -82 148 -118 159 -114 63 27 105 36 175 38 111 1 174 -22 242 -90 62
-62 59 -63 94 66 33 122 33 330 1 448 -59 218 -217 422 -412 530 -30 17 -98
45 -150 63 -84 28 -110 32 -225 35 -86 3 -150 -1 -190 -10z"/>
<path d="M3770 5967 c-53 -27 -61 -103 -15 -133 12 -8 87 -36 166 -63 79 -27
174 -61 212 -75 37 -14 72 -26 77 -26 10 0 24 29 41 83 7 26 5 30 -29 44 -20
8 -116 50 -212 93 -212 94 -209 93 -240 77z"/>
<path d="M6275 5885 c-120 -51 -221 -98 -223 -104 -2 -6 4 -34 14 -62 13 -36
23 -49 34 -45 240 80 474 166 481 177 29 46 -10 130 -59 128 -15 0 -126 -43
-247 -94z"/>
<path d="M3622 5545 c-28 -35 -28 -67 1 -99 22 -25 26 -26 286 -42 222 -14
265 -14 272 -3 11 17 12 109 2 109 -5 0 -39 5 -78 10 -250 33 -309 40 -381 46
-79 6 -81 6 -102 -21z"/>
<path d="M6336 5539 c-120 -15 -221 -30 -223 -33 -3 -3 -2 -30 2 -61 6 -51 8
-55 33 -55 15 0 137 7 272 15 l245 14 24 27 c18 22 22 35 17 63 -11 71 -39 74
-370 30z"/>
<path d="M3910 5215 c-146 -30 -290 -61 -320 -70 -54 -14 -51 -14 100 -10 85
3 227 12 315 20 88 8 168 15 178 15 15 0 18 7 15 47 -2 25 -7 48 -13 49 -5 2
-129 -22 -275 -51z"/>
<path d="M6096 5220 c-4 -24 -5 -44 -4 -45 16 -16 682 -57 667 -42 -6 7 -526
112 -605 122 l-51 7 -7 -42z"/>
<path d="M5152 4428 l3 -793 105 -2 c58 -2 199 -10 314 -18 115 -8 211 -13
213 -11 3 3 4 173 3 379 0 207 3 378 8 381 5 3 33 -10 63 -28 30 -17 93 -53
142 -78 l87 -47 0 38 c0 20 -12 77 -26 126 -29 102 -41 118 -176 228 l-88 71
0 164 0 163 -55 25 c-30 14 -65 24 -77 22 -22 -3 -23 -6 -20 -103 1 -55 -1
-106 -6 -112 -5 -9 -36 12 -104 70 -210 179 -369 312 -378 315 -7 3 -9 -266
-8 -790z m243 -11 l80 -53 3 -107 3 -107 -73 26 c-118 42 -108 27 -108 169 0
69 3 125 8 125 4 0 43 -24 87 -53z m68 -425 c14 -12 17 -32 17 -99 l0 -84 -37
7 c-21 3 -60 14 -88 23 l-50 16 -3 113 -3 113 73 -37 c40 -20 81 -43 91 -52z"/>
<path d="M6294 4756 c-60 -55 -133 -122 -161 -147 l-52 -46 41 -31 41 -31 46
38 c25 22 78 68 116 104 l70 65 3 -289 2 -289 23 -5 c12 -2 53 -11 90 -20 92
-20 94 -20 108 22 7 21 20 51 30 68 16 25 19 51 19 148 0 72 4 117 10 117 6 0
34 -13 63 -30 74 -41 87 -40 87 11 0 52 -11 71 -76 141 l-54 57 0 65 c0 61 -2
67 -25 78 -16 7 -35 8 -57 2 -33 -10 -51 -34 -24 -34 12 0 16 -10 16 -36 l0
-36 -57 47 c-32 27 -78 67 -103 91 l-45 42 -111 -102z m254 -328 c14 -14 16
-78 3 -78 -5 0 -21 4 -35 10 -20 7 -26 17 -26 38 0 16 3 32 7 35 10 11 38 8
51 -5z"/>
<path d="M3830 4779 c-41 -39 -123 -112 -182 -162 -113 -96 -146 -144 -134
-191 15 -60 75 -24 271 162 l120 114 3 -285 2 -285 69 13 c163 32 154 24 166
145 13 136 30 189 73 234 l40 41 -29 23 c-27 22 -29 28 -29 96 0 89 -16 111
-74 101 -42 -8 -71 -35 -37 -35 17 0 21 -6 21 -36 l0 -36 -57 50 c-32 28 -74
66 -92 86 -19 20 -40 36 -45 36 -6 -1 -45 -33 -86 -71z m226 -353 c15 -11 20
-23 16 -45 -4 -28 -7 -30 -31 -24 -30 7 -40 19 -36 42 2 9 4 22 4 29 1 16 22
15 47 -2z"/>
<path d="M3801 4469 c-25 -5 -48 -12 -52 -16 -7 -9 -21 -363 -14 -363 3 0 32
7 65 17 l60 16 0 113 0 113 -52 4 -53 3 53 2 52 2 0 54 c0 30 -3 57 -7 59 -5
2 -28 0 -52 -4z"/>
<path d="M6267 4468 c-36 -8 -47 -14 -43 -25 3 -8 6 -33 6 -55 l0 -40 48 7
c64 9 74 19 70 74 -3 52 -8 54 -81 39z"/>
<path d="M3063 4416 c-200 -65 -308 -285 -244 -494 37 -121 142 -238 266 -294
40 -17 69 -22 140 -23 l90 0 -3 -45 -2 -45 184 -188 c174 -179 186 -189 214
-182 l30 6 3 -74 c8 -146 120 -307 265 -378 64 -32 75 -34 169 -34 95 0 105 2
169 34 78 40 138 101 181 187 28 55 30 67 30 169 0 101 -2 115 -29 170 -38 78
-137 178 -209 210 -104 48 -211 54 -312 18 -49 -17 -115 -60 -115 -74 0 -6 32
-44 70 -83 39 -40 70 -80 70 -89 0 -41 -92 -62 -149 -33 -29 16 -553 552 -570
585 -12 21 4 43 57 78 26 18 12 30 272 -224 146 -144 165 -160 176 -144 7 9
31 30 53 45 23 16 41 33 41 39 0 5 -68 78 -151 163 l-152 153 -1 108 c-1 100
-3 113 -33 176 -45 96 -136 187 -231 234 -63 32 -85 37 -155 40 -51 2 -98 -2
-124 -11z m186 -178 c58 -28 121 -91 160 -159 30 -52 42 -119 21 -119 -5 0
-10 4 -10 10 0 19 -86 60 -126 60 -112 0 -171 -125 -104 -220 29 -40 20 -48
-30 -25 -54 25 -137 105 -160 157 -51 112 -2 251 105 299 53 24 89 24 144 -3z
m984 -955 c45 -23 107 -83 130 -127 47 -91 16 -230 -64 -283 -82 -54 -160 -50
-256 13 -54 35 -116 116 -129 167 -8 36 1 34 47 -7 108 -98 259 -48 259 85 0
55 -34 109 -84 133 -42 20 -44 24 -13 35 26 10 71 4 110 -16z"/>
<path d="M7070 4417 c-124 -35 -244 -138 -306 -264 -34 -69 -50 -167 -38 -224
l10 -44 -158 -161 c-87 -89 -158 -166 -158 -172 0 -5 22 -24 49 -41 27 -18 52
-39 56 -48 4 -13 53 30 204 181 218 218 212 214 275 161 28 -22 29 -26 16 -49
-23 -44 -543 -568 -577 -582 -39 -17 -87 -18 -114 -4 -38 21 -24 57 53 137
l73 74 -25 20 c-84 64 -196 89 -300 65 -164 -37 -275 -132 -330 -283 -19 -52
-22 -77 -18 -145 6 -114 40 -187 123 -267 89 -86 136 -105 255 -106 89 0 100
2 171 36 89 43 149 94 194 164 42 65 75 167 75 227 0 26 3 49 8 49 4 1 17 3
28 4 13 1 97 78 203 186 179 181 182 185 177 220 -8 51 17 73 65 59 90 -27
231 31 329 137 130 139 162 306 90 471 -27 61 -113 147 -179 179 -66 31 -179
40 -251 20z m194 -195 c82 -57 112 -177 69 -274 -28 -62 -94 -132 -149 -159
-25 -12 -47 -19 -50 -16 -3 2 7 26 21 52 29 55 31 81 11 130 -18 43 -69 75
-119 75 -45 0 -112 -32 -127 -60 -14 -27 -30 -25 -30 3 2 65 69 177 140 231
82 62 162 68 234 18z m-1045 -928 l23 -16 -40 -18 c-79 -36 -110 -117 -73
-193 47 -97 159 -101 253 -10 21 20 40 34 44 30 14 -13 -30 -109 -71 -155 -55
-61 -128 -95 -207 -96 -47 -1 -64 4 -100 29 -53 37 -98 120 -98 179 2 109 76
211 185 253 42 16 57 15 84 -3z"/>
<path d="M4735 4396 l-50 -11 -3 -142 -3 -141 73 28 73 27 3 127 c3 144 9 136
-93 112z"/>
<path d="M6278 4342 l-48 -3 0 -43 c0 -24 -3 -63 -6 -88 l-6 -45 43 -7 c24 -4
54 -9 67 -13 22 -5 22 -4 22 95 0 111 2 109 -72 104z"/>
<path d="M4300 4114 c-165 -27 -315 -56 -442 -86 l-128 -30 0 -48 0 -48 128
-129 c71 -70 136 -141 146 -158 l17 -30 185 -1 184 -2 0 274 c0 151 -1 273 -2
273 -2 -1 -41 -8 -88 -15z"/>
<path d="M5920 3862 l0 -270 23 -5 c12 -3 100 -4 196 -3 166 2 174 3 185 24
20 37 188 214 239 250 48 34 48 35 45 86 l-3 51 -110 27 c-60 15 -206 44 -325
63 -118 20 -223 39 -232 41 -17 5 -18 -12 -18 -264z"/>
<path d="M4720 3996 l-75 -22 -3 -182 -2 -183 77 6 c43 4 84 8 91 11 16 5 13
386 -3 390 -5 1 -44 -7 -85 -20z"/>
<path d="M4700 3480 c-52 -5 -123 -11 -158 -15 l-63 -7 54 -56 c94 -100 134
-187 145 -316 l7 -80 70 -18 c256 -65 629 -64 875 2 34 9 35 11 32 48 -10 105
51 261 141 358 l56 60 -112 13 c-132 16 -902 24 -1047 11z"/>
<path d="M4623 2832 c-17 -31 -49 -78 -72 -103 l-41 -47 113 -31 c199 -54 288
-65 542 -65 197 -1 248 3 360 23 107 19 280 64 293 76 2 2 -17 29 -43 61 -26
31 -56 76 -68 100 -11 24 -25 44 -30 44 -5 0 -43 -9 -85 -19 -265 -68 -581
-66 -849 3 -33 9 -67 16 -74 16 -8 0 -28 -26 -46 -58z"/>
</g>
</svg>
